<?xml version="1.0" encoding="UTF-8" standalone="no"?>
<!-- Created with Inkscape (http://www.inkscape.org/) -->

<svg
   xmlns:dc="http://purl.org/dc/elements/1.1/"
   xmlns:cc="http://creativecommons.org/ns#"
   xmlns:rdf="http://www.w3.org/1999/02/22-rdf-syntax-ns#"
   xmlns:svg="http://www.w3.org/2000/svg"
   xmlns="http://www.w3.org/2000/svg"
   xmlns:sodipodi="http://sodipodi.sourceforge.net/DTD/sodipodi-0.dtd"
   xmlns:inkscape="http://www.inkscape.org/namespaces/inkscape"
   width="6.1888084in"
   height="1.9320775in"
   viewBox="0 0 556.99276 173.88698"
   id="svg4236"
   version="1.1"
   inkscape:version="0.91 r13725"
   sodipodi:docname="non_convex_shapes.svg">
  <defs
     id="defs4238">
    <inkscape:path-effect
       effect="spiro"
       id="path-effect4262"
       is_visible="true" />
    <inkscape:path-effect
       effect="spiro"
       id="path-effect4250"
       is_visible="true" />
  </defs>
  <sodipodi:namedview
     id="base"
     pagecolor="#ffffff"
     bordercolor="#666666"
     borderopacity="1.0"
     inkscape:pageopacity="0.0"
     inkscape:pageshadow="2"
     inkscape:zoom="1"
     inkscape:cx="207.07349"
     inkscape:cy="172.20959"
     inkscape:document-units="px"
     inkscape:current-layer="layer1"
     showgrid="false"
     units="in"
     inkscape:snap-smooth-nodes="true"
     inkscape:window-width="1366"
     inkscape:window-height="719"
     inkscape:window-x="0"
     inkscape:window-y="0"
     inkscape:window-maximized="1"
     fit-margin-top="0"
     fit-margin-left="0"
     fit-margin-right="0"
     fit-margin-bottom="0" />
  <metadata
     id="metadata4241">
    <rdf:RDF>
      <cc:Work
         rdf:about="">
        <dc:format>image/svg+xml</dc:format>
        <dc:type
           rdf:resource="http://purl.org/dc/dcmitype/StillImage" />
        <dc:title></dc:title>
      </cc:Work>
    </rdf:RDF>
  </metadata>
  <g
     inkscape:label="Layer 1"
     inkscape:groupmode="layer"
     id="layer1"
     transform="translate(-60.540038,-804.032)">
    <g
       id="g4833"
       transform="matrix(1.3886807,0,0,1.0430688,-56.803481,48.319731)">
      <ellipse
         ry="28.5"
         rx="73"
         cy="807.86212"
         cx="160"
         id="path4252"
         style="fill:#b3b3b3;fill-opacity:1;stroke:#b3b3b3;stroke-width:5;stroke-miterlimit:4;stroke-dasharray:none;stroke-opacity:1" />
      <ellipse
         transform="matrix(0.90898119,0.41683713,-0.41683713,0.90898119,0,0)"
         ry="88.5"
         rx="19.5"
         cy="642.00201"
         cx="538.0863"
         id="path4254"
         style="fill:#b3b3b3;fill-opacity:1;stroke:#b3b3b3;stroke-width:5;stroke-miterlimit:4;stroke-dasharray:none" />
      <path
         inkscape:connector-curvature="0"
         id="path4264"
         d="m 160,779.36212 c 40,-1.49997 77.5,-36.99997 77.5,-36.99997"
         style="fill:none;fill-rule:evenodd;stroke:#b3b3b3;stroke-width:5;stroke-linecap:butt;stroke-linejoin:miter;stroke-miterlimit:4;stroke-dasharray:none;stroke-opacity:1" />
      <path
         inkscape:connector-curvature="0"
         id="path4266"
         d="m 160,836.36212 c 25.5,1.00003 22.5,26.00003 22.5,26.00003"
         style="fill:none;fill-rule:evenodd;stroke:#b3b3b3;stroke-width:5;stroke-linecap:butt;stroke-linejoin:miter;stroke-miterlimit:4;stroke-dasharray:none;stroke-opacity:1" />
      <path
         transform="translate(0,692.36215)"
         inkscape:connector-curvature="0"
         id="path4270"
         d="m 182.95053,162.40714 c -2.04897,-9.07165 -6.31942,-14.56461 -13.50053,-17.36535 l -2,-0.78003 2.25,-0.28613 c 1.2375,-0.15738 4.2506,-0.42877 6.69577,-0.60309 2.44518,-0.17433 6.38268,-0.60655 8.75,-0.9605 2.36733,-0.35396 4.35006,-0.60402 4.40607,-0.55571 0.056,0.0483 -0.67992,2.5545 -1.63541,5.56932 -0.9555,3.01482 -2.38748,7.95649 -3.18219,10.98149 -1.23546,4.7027 -1.49403,5.28256 -1.78371,4 z"
         style="fill:#b3b3b3;fill-opacity:1;stroke-width:5;stroke-miterlimit:4;stroke-dasharray:none" />
      <path
         transform="translate(0,692.36215)"
         inkscape:connector-curvature="0"
         id="path4812"
         d="m 206.46353,90.829533 c -4.81978,-1.5896 -13.44662,-3.543982 -19.625,-4.445981 -1.5125,-0.220813 -3.14375,-0.46558 -3.625,-0.543925 -0.79133,-0.128824 -0.51641,-0.267901 2.875,-1.454424 11.32129,-3.960883 24.04302,-10.573254 35.10695,-18.247546 1.29633,-0.899171 2.3958,-1.596016 2.44327,-1.548543 0.0475,0.04747 -1.36502,2.493093 -3.13889,5.434712 -3.47333,5.75987 -7.99708,13.812965 -10.41133,18.534062 -0.825,1.613295 -1.55625,2.923537 -1.625,2.91165 -0.0687,-0.01188 -0.96875,-0.29989 -2,-0.640005 z"
         style="fill:#b3b3b3;fill-opacity:1;stroke:#b3b3b3;stroke-width:5;stroke-miterlimit:4;stroke-dasharray:none;stroke-opacity:1" />
    </g>
    <path
       style="fill:#b3b3b3;fill-rule:evenodd;stroke:#b3b3b3;stroke-width:1.2035321px;stroke-linecap:butt;stroke-linejoin:miter;stroke-opacity:1"
       d="m 388.96301,918.61687 58.32459,-108.47916 55.54723,92.83313 113.87181,-38.59355 -24.99625,109.52224 -168.03036,3.12917 z"
       id="path4841"
       inkscape:connector-curvature="0" />
  </g>
</svg>
