<?xml version="1.0" encoding="UTF-8" standalone="no"?>
<!-- Created with Inkscape (http://www.inkscape.org/) -->

<svg
   xmlns:dc="http://purl.org/dc/elements/1.1/"
   xmlns:cc="http://creativecommons.org/ns#"
   xmlns:rdf="http://www.w3.org/1999/02/22-rdf-syntax-ns#"
   xmlns:svg="http://www.w3.org/2000/svg"
   xmlns="http://www.w3.org/2000/svg"
   xmlns:sodipodi="http://sodipodi.sourceforge.net/DTD/sodipodi-0.dtd"
   xmlns:inkscape="http://www.inkscape.org/namespaces/inkscape"
   id="svg3270"
   version="1.1"
   inkscape:version="0.48.3.1 r9886"
   width="600.375"
   height="346"
   xml:space="preserve"
   sodipodi:docname="iris_demo_2.svg"><metadata
     id="metadata3276"><rdf:RDF><cc:Work
         rdf:about=""><dc:format>image/svg+xml</dc:format><dc:type
           rdf:resource="http://purl.org/dc/dcmitype/StillImage" /><dc:title></dc:title></cc:Work></rdf:RDF></metadata><defs
     id="defs3274"><clipPath
       clipPathUnits="userSpaceOnUse"
       id="clipPath3286"><path
         d="m 1392,5384 0,-2752 3480,0 0,2752 -3480,0 z"
         id="path3288"
         inkscape:connector-curvature="0" /></clipPath><clipPath
       clipPathUnits="userSpaceOnUse"
       id="clipPath3392"><path
         d="m 808,5640 0,-3368 4480,0 0,3368 -4480,0 z"
         id="path3394"
         inkscape:connector-curvature="0" /></clipPath><clipPath
       clipPathUnits="userSpaceOnUse"
       id="clipPath3418"><path
         d="m 1392,5384 0,-2752 3480,0 0,2752 -3480,0 z"
         id="path3420"
         inkscape:connector-curvature="0" /></clipPath><clipPath
       clipPathUnits="userSpaceOnUse"
       id="clipPath3430"><path
         d="m 808,5640 0,-3368 4480,0 0,3368 -4480,0 z"
         id="path3432"
         inkscape:connector-curvature="0" /></clipPath></defs><sodipodi:namedview
     pagecolor="#ffffff"
     bordercolor="#666666"
     borderopacity="1"
     objecttolerance="10"
     gridtolerance="10"
     guidetolerance="10"
     inkscape:pageopacity="0"
     inkscape:pageshadow="2"
     inkscape:window-width="1920"
     inkscape:window-height="1004"
     id="namedview3272"
     showgrid="false"
     inkscape:zoom="1.3485026"
     inkscape:cx="323.41457"
     inkscape:cy="173.88862"
     inkscape:window-x="0"
     inkscape:window-y="24"
     inkscape:window-maximized="1"
     inkscape:current-layer="g3278"
     fit-margin-top="1"
     fit-margin-left="1"
     fit-margin-right="1"
     fit-margin-bottom="1" /><g
     id="g3278"
     inkscape:groupmode="layer"
     inkscape:label="iris_demo_2"
     transform="matrix(1.25,0,0,-1.25,-9.625,674)"><g
       id="g3282"
       transform="scale(0.1,0.1)"><g
         clip-path="url(#clipPath3286)"
         id="g3284"><path
           inkscape:connector-curvature="0"
           id="path3290"
           style="fill:#000000;fill-opacity:1;fill-rule:evenodd;stroke:none"
           d="m 3176,4416 -8,-56 312,136 -64,224 -240,-304" /><path
           inkscape:connector-curvature="0"
           id="path3292"
           style="fill:none;stroke:#000000;stroke-width:20;stroke-linecap:butt;stroke-linejoin:round;stroke-miterlimit:10;stroke-opacity:1;stroke-dasharray:none"
           d="m 3176,4416 -8,-56 312,136 -64,224 -240,-304 0,0" /><path
           inkscape:connector-curvature="0"
           id="path3294"
           style="fill:#000000;fill-opacity:1;fill-rule:evenodd;stroke:none"
           d="m 2248,4392 304,80 -272,328 -32,-408" /><path
           inkscape:connector-curvature="0"
           id="path3296"
           style="fill:none;stroke:#000000;stroke-width:20;stroke-linecap:butt;stroke-linejoin:round;stroke-miterlimit:10;stroke-opacity:1;stroke-dasharray:none"
           d="m 2248,4392 304,80 -272,328 -32,-408 0,0" /><path
           inkscape:connector-curvature="0"
           id="path3298"
           style="fill:#000000;fill-opacity:1;fill-rule:evenodd;stroke:none"
           d="m 4712,4888 -312,296 -88,-472 400,176" /><path
           inkscape:connector-curvature="0"
           id="path3300"
           style="fill:none;stroke:#000000;stroke-width:20;stroke-linecap:butt;stroke-linejoin:round;stroke-miterlimit:10;stroke-opacity:1;stroke-dasharray:none"
           d="m 4712,4888 -312,296 -88,-472 400,176 0,0" /><path
           inkscape:connector-curvature="0"
           id="path3302"
           style="fill:#000000;fill-opacity:1;fill-rule:evenodd;stroke:none"
           d="m 1568,3496 336,224 72,96 -472,104 64,-424" /><path
           inkscape:connector-curvature="0"
           id="path3304"
           style="fill:none;stroke:#000000;stroke-width:20;stroke-linecap:butt;stroke-linejoin:round;stroke-miterlimit:10;stroke-opacity:1;stroke-dasharray:none"
           d="m 1568,3496 336,224 72,96 -472,104 64,-424 0,0" /><path
           inkscape:connector-curvature="0"
           id="path3306"
           style="fill:#000000;fill-opacity:1;fill-rule:evenodd;stroke:none"
           d="m 2400,4680 320,-384 248,344 48,104 -616,-64" /><path
           inkscape:connector-curvature="0"
           id="path3308"
           style="fill:none;stroke:#000000;stroke-width:20;stroke-linecap:butt;stroke-linejoin:round;stroke-miterlimit:10;stroke-opacity:1;stroke-dasharray:none"
           d="m 2400,4680 320,-384 248,344 48,104 -616,-64 0,0" /><path
           inkscape:connector-curvature="0"
           id="path3310"
           style="fill:#000000;fill-opacity:1;fill-rule:evenodd;stroke:none"
           d="m 3360,4536 -48,184 -208,264 192,-360 64,-88" /><path
           inkscape:connector-curvature="0"
           id="path3312"
           style="fill:none;stroke:#000000;stroke-width:20;stroke-linecap:butt;stroke-linejoin:round;stroke-miterlimit:10;stroke-opacity:1;stroke-dasharray:none"
           d="m 3360,4536 -48,184 -208,264 192,-360 64,-88 0,0" /><path
           inkscape:connector-curvature="0"
           id="path3314"
           style="fill:#000000;fill-opacity:1;fill-rule:evenodd;stroke:none"
           d="m 2808,3016 152,184 -16,112 -272,-280 136,-16" /><path
           inkscape:connector-curvature="0"
           id="path3316"
           style="fill:none;stroke:#000000;stroke-width:20;stroke-linecap:butt;stroke-linejoin:round;stroke-miterlimit:10;stroke-opacity:1;stroke-dasharray:none"
           d="m 2808,3016 152,184 -16,112 -272,-280 136,-16 0,0" /><path
           inkscape:connector-curvature="0"
           id="path3318"
           style="fill:#000000;fill-opacity:1;fill-rule:evenodd;stroke:none"
           d="m 1592,4784 256,24 -152,112 -144,48 40,-184" /><path
           inkscape:connector-curvature="0"
           id="path3320"
           style="fill:none;stroke:#000000;stroke-width:20;stroke-linecap:butt;stroke-linejoin:round;stroke-miterlimit:10;stroke-opacity:1;stroke-dasharray:none"
           d="m 1592,4784 256,24 -152,112 -144,48 40,-184 0,0" /><path
           inkscape:connector-curvature="0"
           id="path3322"
           style="fill:#000000;fill-opacity:1;fill-rule:evenodd;stroke:none"
           d="m 2544,3616 -160,296 -472,-352 632,56" /><path
           inkscape:connector-curvature="0"
           id="path3324"
           style="fill:none;stroke:#000000;stroke-width:20;stroke-linecap:butt;stroke-linejoin:round;stroke-miterlimit:10;stroke-opacity:1;stroke-dasharray:none"
           d="m 2544,3616 -160,296 -472,-352 632,56 0,0" /><path
           inkscape:connector-curvature="0"
           id="path3326"
           style="fill:#000000;fill-opacity:1;fill-rule:evenodd;stroke:none"
           d="m 3192,3096 384,344 -520,-264 136,-80" /><path
           inkscape:connector-curvature="0"
           id="path3328"
           style="fill:none;stroke:#000000;stroke-width:20;stroke-linecap:butt;stroke-linejoin:round;stroke-miterlimit:10;stroke-opacity:1;stroke-dasharray:none"
           d="m 3192,3096 384,344 -520,-264 136,-80 0,0" /><path
           inkscape:connector-curvature="0"
           id="path3330"
           style="fill:#000000;fill-opacity:1;fill-rule:evenodd;stroke:none"
           d="m 3552,4208 -256,-96 56,-80 384,-24 -184,200" /><path
           inkscape:connector-curvature="0"
           id="path3332"
           style="fill:none;stroke:#000000;stroke-width:20;stroke-linecap:butt;stroke-linejoin:round;stroke-miterlimit:10;stroke-opacity:1;stroke-dasharray:none"
           d="m 3552,4208 -256,-96 56,-80 384,-24 -184,200 0,0" /><path
           inkscape:connector-curvature="0"
           id="path3334"
           style="fill:#000000;fill-opacity:1;fill-rule:evenodd;stroke:none"
           d="m 1880,4512 -56,424 -112,-248 8,-112 160,-64" /><path
           inkscape:connector-curvature="0"
           id="path3336"
           style="fill:none;stroke:#000000;stroke-width:20;stroke-linecap:butt;stroke-linejoin:round;stroke-miterlimit:10;stroke-opacity:1;stroke-dasharray:none"
           d="m 1880,4512 -56,424 -112,-248 8,-112 160,-64 0,0" /><path
           inkscape:connector-curvature="0"
           id="path3338"
           style="fill:#000000;fill-opacity:1;fill-rule:evenodd;stroke:none"
           d="m 1520,3720 128,-448 80,208 -144,296 -64,-56" /><path
           inkscape:connector-curvature="0"
           id="path3340"
           style="fill:none;stroke:#000000;stroke-width:20;stroke-linecap:butt;stroke-linejoin:round;stroke-miterlimit:10;stroke-opacity:1;stroke-dasharray:none"
           d="m 1520,3720 128,-448 80,208 -144,296 -64,-56 0,0" /><path
           inkscape:connector-curvature="0"
           id="path3342"
           style="fill:#000000;fill-opacity:1;fill-rule:evenodd;stroke:none"
           d="m 2176,3976 304,192 -504,-72 8,-112 192,-8" /><path
           inkscape:connector-curvature="0"
           id="path3344"
           style="fill:none;stroke:#000000;stroke-width:20;stroke-linecap:butt;stroke-linejoin:round;stroke-miterlimit:10;stroke-opacity:1;stroke-dasharray:none"
           d="m 2176,3976 304,192 -504,-72 8,-112 192,-8 0,0" /><path
           inkscape:connector-curvature="0"
           id="path3346"
           style="fill:#000000;fill-opacity:1;fill-rule:evenodd;stroke:none"
           d="m 1544,3544 312,16 208,128 -32,320 -488,-464" /><path
           inkscape:connector-curvature="0"
           id="path3348"
           style="fill:none;stroke:#000000;stroke-width:20;stroke-linecap:butt;stroke-linejoin:round;stroke-miterlimit:10;stroke-opacity:1;stroke-dasharray:none"
           d="m 1544,3544 312,16 208,128 -32,320 -488,-464 0,0" /><path
           inkscape:connector-curvature="0"
           id="path3350"
           style="fill:#000000;fill-opacity:1;fill-rule:evenodd;stroke:none"
           d="m 1728,3184 -200,-384 464,304 -96,72 -168,8" /><path
           inkscape:connector-curvature="0"
           id="path3352"
           style="fill:none;stroke:#000000;stroke-width:20;stroke-linecap:butt;stroke-linejoin:round;stroke-miterlimit:10;stroke-opacity:1;stroke-dasharray:none"
           d="m 1728,3184 -200,-384 464,304 -96,72 -168,8 0,0" /><path
           inkscape:connector-curvature="0"
           id="path3354"
           style="fill:#000000;fill-opacity:1;fill-rule:evenodd;stroke:none"
           d="m 4168,3656 -456,0 352,-216 104,216" /><path
           inkscape:connector-curvature="0"
           id="path3356"
           style="fill:none;stroke:#000000;stroke-width:20;stroke-linecap:butt;stroke-linejoin:round;stroke-miterlimit:10;stroke-opacity:1;stroke-dasharray:none"
           d="m 4168,3656 -456,0 352,-216 104,216 0,0" /><path
           inkscape:connector-curvature="0"
           id="path3358"
           style="fill:#000000;fill-opacity:1;fill-rule:evenodd;stroke:none"
           d="m 3624,4952 -184,440 -248,-192 432,-248" /><path
           inkscape:connector-curvature="0"
           id="path3360"
           style="fill:none;stroke:#000000;stroke-width:20;stroke-linecap:butt;stroke-linejoin:round;stroke-miterlimit:10;stroke-opacity:1;stroke-dasharray:none"
           d="m 3624,4952 -184,440 -248,-192 432,-248 0,0" /><path
           inkscape:connector-curvature="0"
           id="path3362"
           style="fill:#000000;fill-opacity:1;fill-rule:evenodd;stroke:none"
           d="m 3120,4632 -496,40 -32,-408 632,344 -104,24" /><path
           inkscape:connector-curvature="0"
           id="path3364"
           style="fill:none;stroke:#000000;stroke-width:20;stroke-linecap:butt;stroke-linejoin:round;stroke-miterlimit:10;stroke-opacity:1;stroke-dasharray:none"
           d="m 3120,4632 -496,40 -32,-408 632,344 -104,24 0,0" /><path
           inkscape:connector-curvature="0"
           id="path3366"
           style="fill:#000000;fill-opacity:1;fill-rule:evenodd;stroke:none"
           d="m 3680,3976 -16,-344 376,120 8,232 -368,-8" /><path
           inkscape:connector-curvature="0"
           id="path3368"
           style="fill:none;stroke:#000000;stroke-width:20;stroke-linecap:butt;stroke-linejoin:round;stroke-miterlimit:10;stroke-opacity:1;stroke-dasharray:none"
           d="m 3680,3976 -16,-344 376,120 8,232 -368,-8 0,0" /><path
           inkscape:connector-curvature="0"
           id="path3370"
           style="fill:none;stroke:#ff00ff;stroke-width:5;stroke-linecap:butt;stroke-linejoin:round;stroke-miterlimit:10;stroke-opacity:1;stroke-dasharray:60;stroke-dashoffset:0"
           d="M 4872,4576 1384,4120" /><path
           inkscape:connector-curvature="0"
           id="path3372"
           style="fill:none;stroke:#ff00ff;stroke-width:5;stroke-linecap:butt;stroke-linejoin:round;stroke-miterlimit:10;stroke-opacity:1;stroke-dasharray:60;stroke-dashoffset:0"
           d="M 1392,3880 4832,2632" /><path
           inkscape:connector-curvature="0"
           id="path3374"
           style="fill:none;stroke:#ff00ff;stroke-width:5;stroke-linecap:butt;stroke-linejoin:round;stroke-miterlimit:10;stroke-opacity:1;stroke-dasharray:60;stroke-dashoffset:0"
           d="M 1552,5384 3096,2632" /><path
           inkscape:connector-curvature="0"
           id="path3376"
           style="fill:none;stroke:#ff00ff;stroke-width:5;stroke-linecap:butt;stroke-linejoin:round;stroke-miterlimit:10;stroke-opacity:1;stroke-dasharray:60;stroke-dashoffset:0"
           d="M 1984,2632 4872,4088" /><path
           inkscape:connector-curvature="0"
           id="path3378"
           style="fill:none;stroke:#ff00ff;stroke-width:5;stroke-linecap:butt;stroke-linejoin:round;stroke-miterlimit:10;stroke-opacity:1;stroke-dasharray:60;stroke-dashoffset:0"
           d="M 4624,2632 2104,5384" /><path
           inkscape:connector-curvature="0"
           id="path3380"
           style="fill:none;stroke:#ff00ff;stroke-width:5;stroke-linecap:butt;stroke-linejoin:round;stroke-miterlimit:10;stroke-opacity:1;stroke-dasharray:60;stroke-dashoffset:0"
           d="M 3352,5384 1392,2640" /><path
           inkscape:connector-curvature="0"
           id="path3382"
           style="fill:none;stroke:#ff00ff;stroke-width:5;stroke-linecap:butt;stroke-linejoin:round;stroke-miterlimit:10;stroke-opacity:1;stroke-dasharray:60;stroke-dashoffset:0"
           d="M 4864,5384 1384,3664" /><path
           inkscape:connector-curvature="0"
           id="path3384"
           style="fill:none;stroke:#ff00ff;stroke-width:5;stroke-linecap:butt;stroke-linejoin:round;stroke-miterlimit:10;stroke-opacity:1;stroke-dasharray:60;stroke-dashoffset:0"
           d="M 3776,2632 3472,5384" /><path
           inkscape:connector-curvature="0"
           id="path3386"
           style="fill:none;stroke:#ff0000;stroke-width:20;stroke-linecap:butt;stroke-linejoin:round;stroke-miterlimit:10;stroke-opacity:1;stroke-dasharray:none"
           d="m 2344,3976 312,-560 512,-184 512,256 -24,208 -592,648 -424,-56 -112,-56 -184,-256" /></g></g><g
       id="g3388"
       transform="scale(0.1,0.1)"><g
         clip-path="url(#clipPath3392)"
         id="g3390"><path
           inkscape:connector-curvature="0"
           id="path3396"
           style="fill:none;stroke:#ff0000;stroke-width:20;stroke-linecap:butt;stroke-linejoin:round;stroke-miterlimit:10;stroke-opacity:1;stroke-dasharray:none"
           d="m 2368,3976 c 0,-13.25 -10.75,-24 -24,-24 -13.25,0 -24,10.75 -24,24 0,13.25 10.75,24 24,24 13.25,0 24,-10.75 24,-24" /><path
           inkscape:connector-curvature="0"
           id="path3398"
           style="fill:none;stroke:#ff0000;stroke-width:20;stroke-linecap:butt;stroke-linejoin:round;stroke-miterlimit:10;stroke-opacity:1;stroke-dasharray:none"
           d="m 2680,3416 c 0,-13.25 -10.75,-24 -24,-24 -13.25,0 -24,10.75 -24,24 0,13.25 10.75,24 24,24 13.25,0 24,-10.75 24,-24" /><path
           inkscape:connector-curvature="0"
           id="path3400"
           style="fill:none;stroke:#ff0000;stroke-width:20;stroke-linecap:butt;stroke-linejoin:round;stroke-miterlimit:10;stroke-opacity:1;stroke-dasharray:none"
           d="m 3192,3232 c 0,-13.25 -10.75,-24 -24,-24 -13.25,0 -24,10.75 -24,24 0,13.25 10.75,24 24,24 13.25,0 24,-10.75 24,-24" /><path
           inkscape:connector-curvature="0"
           id="path3402"
           style="fill:none;stroke:#ff0000;stroke-width:20;stroke-linecap:butt;stroke-linejoin:round;stroke-miterlimit:10;stroke-opacity:1;stroke-dasharray:none"
           d="m 3704,3488 c 0,-13.25 -10.75,-24 -24,-24 -13.25,0 -24,10.75 -24,24 0,13.25 10.75,24 24,24 13.25,0 24,-10.75 24,-24" /><path
           inkscape:connector-curvature="0"
           id="path3404"
           style="fill:none;stroke:#ff0000;stroke-width:20;stroke-linecap:butt;stroke-linejoin:round;stroke-miterlimit:10;stroke-opacity:1;stroke-dasharray:none"
           d="m 3680,3696 c 0,-13.25 -10.75,-24 -24,-24 -13.25,0 -24,10.75 -24,24 0,13.25 10.75,24 24,24 13.25,0 24,-10.75 24,-24" /><path
           inkscape:connector-curvature="0"
           id="path3406"
           style="fill:none;stroke:#ff0000;stroke-width:20;stroke-linecap:butt;stroke-linejoin:round;stroke-miterlimit:10;stroke-opacity:1;stroke-dasharray:none"
           d="m 3088,4344 c 0,-13.25 -10.75,-24 -24,-24 -13.25,0 -24,10.75 -24,24 0,13.25 10.75,24 24,24 13.25,0 24,-10.75 24,-24" /><path
           inkscape:connector-curvature="0"
           id="path3408"
           style="fill:none;stroke:#ff0000;stroke-width:20;stroke-linecap:butt;stroke-linejoin:round;stroke-miterlimit:10;stroke-opacity:1;stroke-dasharray:none"
           d="m 2664,4288 c 0,-13.25 -10.75,-24 -24,-24 -13.25,0 -24,10.75 -24,24 0,13.25 10.75,24 24,24 13.25,0 24,-10.75 24,-24" /><path
           inkscape:connector-curvature="0"
           id="path3410"
           style="fill:none;stroke:#ff0000;stroke-width:20;stroke-linecap:butt;stroke-linejoin:round;stroke-miterlimit:10;stroke-opacity:1;stroke-dasharray:none"
           d="m 2552,4232 c 0,-13.25 -10.75,-24 -24,-24 -13.25,0 -24,10.75 -24,24 0,13.25 10.75,24 24,24 13.25,0 24,-10.75 24,-24" /><path
           inkscape:connector-curvature="0"
           id="path3412"
           style="fill:none;stroke:#ff0000;stroke-width:20;stroke-linecap:butt;stroke-linejoin:round;stroke-miterlimit:10;stroke-opacity:1;stroke-dasharray:none"
           d="m 2368,3976 c 0,-13.25 -10.75,-24 -24,-24 -13.25,0 -24,10.75 -24,24 0,13.25 10.75,24 24,24 13.25,0 24,-10.75 24,-24" /></g></g><path
       inkscape:connector-curvature="0"
       id="path3422"
       style="fill:none;stroke:#0000ff;stroke-width:2;stroke-linecap:butt;stroke-linejoin:round;stroke-miterlimit:10;stroke-opacity:1;stroke-dasharray:none"
       d="m 352.8,371.2 -0.8,3.2 -1.6,3.2 -0.8,3.2 -1.6,3.2 -1.6,3.2 -1.6,3.2 -2.4,3.2 -1.6,3.2 -2.4,2.4 -3.2,3.2 -2.4,3.2 -2.4,2.4 -3.2,2.4 -3.2,2.4 -3.2,2.4 -3.2,2.4 -3.2,1.6 -3.2,2.4 -4,1.6 -3.2,1.6 -3.2,1.6 -4,0.8 -3.2,0.8 -4,0.8 -3.2,0.8 -3.2,0 -4,0.8 -3.2,0 -3.2,-0.8 -3.2,0 -2.4,-0.8 -3.2,-0.8 -2.4,-0.8 -3.2,-1.6 -2.4,-1.6 -2.4,-1.6 -1.6,-1.6 -2.4,-1.6 -1.6,-2.4 -1.6,-2.4 -0.8,-2.4 -1.6,-2.4 -0.8,-2.4 -0.8,-2.4 0,-15.2 0.8,-3.2 0.8,-3.2 1.6,-3.2 0.8,-3.2 1.6,-3.2 1.6,-3.2 2.4,-3.2 1.6,-3.2 2.4,-3.2 2.4,-2.4 3.2,-3.2 2.4,-2.4 3.2,-3.2 2.4,-2.4 3.2,-2.4 3.2,-2.4 3.2,-1.6 4,-2.4 3.2,-1.6 3.2,-1.6 4,-1.6 3.2,-0.8 4,-1.6 3.2,-0.8 3.2,-0.8 4,0 3.2,-0.8 6.4,0 3.2,0.8 3.2,0.8 3.2,0 2.4,1.6 3.2,0.8 2.4,1.6 2.4,1.6 1.6,1.6 2.4,1.6 1.6,1.6 1.6,2.4 1.6,2.4 0.8,2.4 1.6,2.4 0.8,3.2 0,2.4 0.8,3.2 0,5.6 -0.8,3.2 0,3.2" /><rect
       id="rect3513"
       width="118.19676"
       height="169.80956"
       x="8.8288107"
       y="-488.31522"
       transform="scale(1,-1)"
       style="fill:none;stroke:#000000;stroke-width:0.66010368;stroke-opacity:1" /><path
       style="fill:none;stroke:#ff00ff;stroke-width:1.60000002;stroke-linecap:butt;stroke-linejoin:miter;stroke-miterlimit:4;stroke-opacity:1;stroke-dasharray:4.8, 4.8;stroke-dashoffset:0"
       d="m 25.509776,468.66798 24.6199,0"
       id="path4287"
       inkscape:connector-curvature="0" /><text
       xml:space="preserve"
       style="font-size:9.60000038px;font-style:normal;font-weight:normal;line-height:125%;letter-spacing:0px;word-spacing:0px;fill:#000000;fill-opacity:1;stroke:none;font-family:Sans"
       x="55.765556"
       y="-472.01953"
       id="text4289"
       sodipodi:linespacing="125%"
       transform="scale(1,-1)"><tspan
         sodipodi:role="line"
         id="tspan4291"
         x="55.765556"
         y="-472.01953">Separating</tspan><tspan
         sodipodi:role="line"
         x="55.765556"
         y="-460.01953"
         id="tspan4293">hyperplanes</tspan></text>
<path
       style="fill:none;stroke:#ff0000;stroke-width:1.60000002;stroke-linecap:butt;stroke-linejoin:miter;stroke-miterlimit:4;stroke-opacity:1;stroke-dasharray:none;stroke-dashoffset:0"
       d="m 24.768213,425.55846 24.6199,0"
       id="path4287-2"
       inkscape:connector-curvature="0" /><text
       xml:space="preserve"
       style="font-size:9.60000038px;font-style:normal;font-weight:normal;line-height:125%;letter-spacing:0px;word-spacing:0px;fill:#000000;fill-opacity:1;stroke:none;font-family:Sans"
       x="55.17231"
       y="-427.97955"
       id="text4313"
       sodipodi:linespacing="125%"
       transform="scale(1,-1)"><tspan
         sodipodi:role="line"
         id="tspan4315"
         x="55.17231"
         y="-427.97955">Polytopic</tspan><tspan
         sodipodi:role="line"
         x="55.17231"
         y="-415.97955"
         id="tspan4317">intersection</tspan></text>
<path
       style="fill:none;stroke:#0000ff;stroke-width:1.60000002;stroke-linecap:butt;stroke-linejoin:miter;stroke-miterlimit:4;stroke-opacity:1;stroke-dasharray:none;stroke-dashoffset:0"
       d="m 25.064838,382.44889 24.6199,0"
       id="path4287-2-4"
       inkscape:connector-curvature="0" /><text
       xml:space="preserve"
       style="font-size:9.60000038px;font-style:normal;font-weight:normal;line-height:125%;letter-spacing:0px;word-spacing:0px;fill:#000000;fill-opacity:1;stroke:none;font-family:Sans"
       x="55.468933"
       y="-385.80045"
       id="text4337"
       sodipodi:linespacing="125%"
       transform="scale(1,-1)"><tspan
         sodipodi:role="line"
         id="tspan4339"
         x="55.468933"
         y="-385.80045">Inscribed</tspan><tspan
         sodipodi:role="line"
         x="55.468933"
         y="-373.80045"
         id="tspan4341">ellipsoid</tspan></text>
<path
       style="fill:#000000;fill-opacity:1;stroke:#000000;stroke-width:1px;stroke-linecap:butt;stroke-linejoin:miter;stroke-opacity:1"
       d="m 30.033312,560.26409 32.258002,-2.96625 -3.337035,17.05595 z"
       id="path4343"
       inkscape:connector-curvature="0"
       transform="matrix(0.8,0,0,-0.8,0,792)" /><text
       xml:space="preserve"
       style="font-size:9.60000038px;font-style:normal;font-weight:normal;line-height:125%;letter-spacing:0px;word-spacing:0px;fill:#000000;fill-opacity:1;stroke:none;font-family:Sans"
       x="56.655434"
       y="-335.76044"
       id="text4345"
       sodipodi:linespacing="125%"
       transform="scale(1,-1)"><tspan
         sodipodi:role="line"
         id="tspan4347"
         x="56.655434"
         y="-335.76044">Obstacles</tspan></text>
<text
       xml:space="preserve"
       style="font-size:12px;font-style:normal;font-weight:normal;line-height:125%;letter-spacing:0px;word-spacing:0px;fill:#000000;fill-opacity:1;stroke:none;font-family:Sans"
       x="131.62749"
       y="619.58917"
       id="text4349"
       sodipodi:linespacing="125%"
       transform="matrix(0.8,0,0,-0.8,0,792)"><tspan
         sodipodi:role="line"
         id="tspan4351"
         x="131.62749"
         y="619.58917" /></text>
</g></svg>